<?xml version="1.0" encoding="utf-8"?>
<svg width="696" height="661" viewBox="0 0 696 661" xmlns="http://www.w3.org/2000/svg">
<rect id="frame" x="0" y="0" width="696" height="661" fill="#f7f7f7" stroke="none" stroke-width="0"/>

<!-- Association has1 -->
<g class="page_0_80t35gcd diagram_page" visibility="visible">
	<line x1="349" y1="221" x2="349" y2="43" stroke="#e08214" stroke-width="2"/>
	<text x="354" y="94" fill="#542788" font-family="Verdana" font-size="12">1,N</text>
	<line x1="454" y1="43" x2="349" y2="43" stroke="#e08214" stroke-width="2"/>
	<text x="379" y="60" fill="#542788" font-family="Verdana" font-size="12">0,N</text>
	<g>
		<path d="M353 18 a14 14 90 0 1 14 14 V43 h-36 V32 a14 14 90 0 1 14 -14" fill="#fdb863" stroke="#fdb863" stroke-width="0"/>
		<path d="M367 43 v11 a14 14 90 0 1 -14 14 H345 a14 14 90 0 1 -14 -14 V43 H36" fill="#fee0b6" stroke="#fee0b6" stroke-width="0"/>
		<rect x="331" y="18" width="36" height="50" fill="none" rx="14" stroke="#e08214" stroke-width="2"/>
		<line x1="331" y1="43" x2="367" y2="43" stroke="#e08214" stroke-width="1"/>
		<text x="338" y="35.75" fill="#000" font-family="Verdana" font-size="12">has</text>
	</g>
</g>

<!-- Association has2 -->
<g class="page_0_80t35gcd diagram_page" visibility="visible">
	<line x1="219" y1="390" x2="219" y2="221" stroke="#e08214" stroke-width="2"/>
	<text x="224" y="263" fill="#542788" font-family="Verdana" font-size="12">1,N</text>
	<line x1="349" y1="221" x2="219" y2="221" stroke="#e08214" stroke-width="2"/>
	<text x="285" y="238" fill="#542788" font-family="Verdana" font-size="12">0,N</text>
	<g>
		<path d="M223 196 a14 14 90 0 1 14 14 V221 h-36 V210 a14 14 90 0 1 14 -14" fill="#fdb863" stroke="#fdb863" stroke-width="0"/>
		<path d="M237 221 v11 a14 14 90 0 1 -14 14 H215 a14 14 90 0 1 -14 -14 V221 H36" fill="#fee0b6" stroke="#fee0b6" stroke-width="0"/>
		<rect x="201" y="196" width="36" height="50" fill="none" rx="14" stroke="#e08214" stroke-width="2"/>
		<line x1="201" y1="221" x2="237" y2="221" stroke="#e08214" stroke-width="1"/>
		<text x="208" y="213.75" fill="#000" font-family="Verdana" font-size="12">has</text>
	</g>
</g>

<!-- Association is1 -->
<g class="page_0_80t35gcd diagram_page" visibility="visible">
	<line x1="349" y1="221" x2="454" y2="221" stroke="#e08214" stroke-width="2"/>
	<text x="391" y="238" fill="#542788" font-family="Verdana" font-size="12">1,1</text>
	<line x1="454" y1="390" x2="454" y2="221" stroke="#e08214" stroke-width="2"/>
	<text x="459" y="331" fill="#542788" font-family="Verdana" font-size="12">0,1</text>
	<g>
		<path d="M453 196 a14 14 90 0 1 14 14 V221 h-26 V210 a14 14 90 0 1 14 -14" fill="#fdb863" stroke="#fdb863" stroke-width="0"/>
		<path d="M467 221 v11 a14 14 90 0 1 -14 14 H455 a14 14 90 0 1 -14 -14 V221 H26" fill="#fee0b6" stroke="#fee0b6" stroke-width="0"/>
		<rect x="441" y="196" width="26" height="50" fill="none" rx="14" stroke="#e08214" stroke-width="2"/>
		<line x1="441" y1="221" x2="467" y2="221" stroke="#e08214" stroke-width="1"/>
		<text x="449" y="213.75" fill="#000" font-family="Verdana" font-size="12">is</text>
	</g>
</g>

<!-- Association has4 -->
<g class="page_0_80t35gcd diagram_page" visibility="visible">
	<line x1="219" y1="390" x2="131" y2="390" stroke="#e08214" stroke-width="2"/>
	<text x="155" y="407" fill="#542788" font-family="Verdana" font-size="12">1,1</text>
	<line x1="45" y1="390" x2="131" y2="390" stroke="#e08214" stroke-width="2"/>
	<text x="86" y="407" fill="#542788" font-family="Verdana" font-size="12">0,N</text>
	<g>
		<path d="M135 365 a14 14 90 0 1 14 14 V390 h-36 V379 a14 14 90 0 1 14 -14" fill="#fdb863" stroke="#fdb863" stroke-width="0"/>
		<path d="M149 390 v11 a14 14 90 0 1 -14 14 H127 a14 14 90 0 1 -14 -14 V390 H36" fill="#fee0b6" stroke="#fee0b6" stroke-width="0"/>
		<rect x="113" y="365" width="36" height="50" fill="none" rx="14" stroke="#e08214" stroke-width="2"/>
		<line x1="113" y1="390" x2="149" y2="390" stroke="#e08214" stroke-width="1"/>
		<text x="120" y="382.75" fill="#000" font-family="Verdana" font-size="12">has</text>
	</g>
</g>

<!-- Association add_by -->
<g class="page_0_80t35gcd diagram_page" visibility="visible">
	<line x1="349" y1="559" x2="349" y2="390" stroke="#e08214" stroke-width="2"/>
	<text x="354" y="458" fill="#542788" font-family="Verdana" font-size="12">0,N</text>
	<line x1="349" y1="221" x2="349" y2="390" stroke="#e08214" stroke-width="2"/>
	<text x="354" y="357" fill="#542788" font-family="Verdana" font-size="12">0,N</text>
	<g>
		<path d="M365 365 a14 14 90 0 1 14 14 V390 h-60 V379 a14 14 90 0 1 14 -14" fill="#fdb863" stroke="#fdb863" stroke-width="0"/>
		<path d="M379 390 v11 a14 14 90 0 1 -14 14 H333 a14 14 90 0 1 -14 -14 V390 H60" fill="#fee0b6" stroke="#fee0b6" stroke-width="0"/>
		<rect x="319" y="365" width="60" height="50" fill="none" rx="14" stroke="#e08214" stroke-width="2"/>
		<line x1="319" y1="390" x2="379" y2="390" stroke="#e08214" stroke-width="1"/>
		<text x="327" y="382.75" fill="#000" font-family="Verdana" font-size="12">add_by</text>
	</g>
</g>

<!-- Association has3 -->
<g class="page_0_80t35gcd diagram_page" visibility="visible">
	<line x1="454" y1="390" x2="539" y2="390" stroke="#e08214" stroke-width="2"/>
	<text x="494" y="407" fill="#542788" font-family="Verdana" font-size="12">0,N</text>
	<line x1="638" y1="390" x2="539" y2="390" stroke="#e08214" stroke-width="2"/>
	<text x="563" y="407" fill="#542788" font-family="Verdana" font-size="12">1,1</text>
	<g>
		<path d="M543 365 a14 14 90 0 1 14 14 V390 h-36 V379 a14 14 90 0 1 14 -14" fill="#fdb863" stroke="#fdb863" stroke-width="0"/>
		<path d="M557 390 v11 a14 14 90 0 1 -14 14 H535 a14 14 90 0 1 -14 -14 V390 H36" fill="#fee0b6" stroke="#fee0b6" stroke-width="0"/>
		<rect x="521" y="365" width="36" height="50" fill="none" rx="14" stroke="#e08214" stroke-width="2"/>
		<line x1="521" y1="390" x2="557" y2="390" stroke="#e08214" stroke-width="1"/>
		<text x="528" y="382.75" fill="#000" font-family="Verdana" font-size="12">has</text>
	</g>
</g>

<!-- Association create_by -->
<g class="page_0_80t35gcd diagram_page" visibility="visible">
	<line x1="219" y1="390" x2="219" y2="559" stroke="#e08214" stroke-width="2"/>
	<text x="224" y="526" fill="#542788" font-family="Verdana" font-size="12">1,N</text>
	<line x1="349" y1="559" x2="219" y2="559" stroke="#e08214" stroke-width="2"/>
	<text x="262" y="576" fill="#542788" font-family="Verdana" font-size="12">0,N</text>
	<g>
		<path d="M243 534 a14 14 90 0 1 14 14 V559 h-76 V548 a14 14 90 0 1 14 -14" fill="#fdb863" stroke="#fdb863" stroke-width="0"/>
		<path d="M257 559 v11 a14 14 90 0 1 -14 14 H195 a14 14 90 0 1 -14 -14 V559 H76" fill="#fee0b6" stroke="#fee0b6" stroke-width="0"/>
		<rect x="181" y="534" width="76" height="50" fill="none" rx="14" stroke="#e08214" stroke-width="2"/>
		<line x1="181" y1="559" x2="257" y2="559" stroke="#e08214" stroke-width="1"/>
		<text x="189" y="551.75" fill="#000" font-family="Verdana" font-size="12">create_by</text>
	</g>
</g>

<!-- Association is2 -->
<g class="page_0_80t35gcd diagram_page" visibility="visible">
	<line x1="349" y1="559" x2="454" y2="559" stroke="#e08214" stroke-width="2"/>
	<text x="414" y="576" fill="#542788" font-family="Verdana" font-size="12">1,1</text>
	<line x1="454" y1="390" x2="454" y2="559" stroke="#e08214" stroke-width="2"/>
	<text x="459" y="458" fill="#542788" font-family="Verdana" font-size="12">0,1</text>
	<g>
		<path d="M453 534 a14 14 90 0 1 14 14 V559 h-26 V548 a14 14 90 0 1 14 -14" fill="#fdb863" stroke="#fdb863" stroke-width="0"/>
		<path d="M467 559 v11 a14 14 90 0 1 -14 14 H455 a14 14 90 0 1 -14 -14 V559 H26" fill="#fee0b6" stroke="#fee0b6" stroke-width="0"/>
		<rect x="441" y="534" width="26" height="50" fill="none" rx="14" stroke="#e08214" stroke-width="2"/>
		<line x1="441" y1="559" x2="467" y2="559" stroke="#e08214" stroke-width="1"/>
		<text x="449" y="551.75" fill="#000" font-family="Verdana" font-size="12">is</text>
	</g>
</g>

<!-- Entity Category -->
<g class="page_0_80t35gcd diagram_page" visibility="visible">
	<g>
		<rect x="406" y="9" width="96" height="25" fill="#b2abd2" stroke="#b2abd2" stroke-width="0" opacity="1"/>
		<rect x="406" y="34" width="96" height="43" fill="#d8daeb" stroke="#d8daeb" stroke-width="0" opacity="1"/>
		<rect x="406" y="9" width="96" height="68" fill="none" stroke="#8073ac" stroke-width="2" opacity="1"/>
		<line x1="406" y1="34" x2="502" y2="34" stroke="#8073ac" stroke-width="1"/>
	</g>
	<text x="426" y="26.75" fill="#000" font-family="Verdana" font-size="12">Category</text>
	<text x="411" y="51.8" fill="#000" font-family="Verdana" font-size="12">CodeCategory</text>
	<line x1="411" y1="54" x2="497" y2="54" stroke="#000" stroke-width="1"/>
	<text x="411" y="68.8" fill="#000" font-family="Verdana" font-size="12">Name</text>
</g>

<!-- Entity Artist -->
<g class="page_0_80t35gcd diagram_page" visibility="visible">
	<g>
		<rect x="312" y="102" width="74" height="25" fill="#b2abd2" stroke="#b2abd2" stroke-width="0" opacity="1"/>
		<rect x="312" y="127" width="74" height="213" fill="#d8daeb" stroke="#d8daeb" stroke-width="0" opacity="1"/>
		<rect x="312" y="102" width="74" height="238" fill="none" stroke="#8073ac" stroke-width="2" opacity="1"/>
		<line x1="312" y1="127" x2="386" y2="127" stroke="#8073ac" stroke-width="1"/>
	</g>
	<text x="333" y="119.75" fill="#000" font-family="Verdana" font-size="12">Artist</text>
	<text x="317" y="144.8" fill="#000" font-family="Verdana" font-size="12">CodeArtist</text>
	<line x1="317" y1="147" x2="381" y2="147" stroke="#000" stroke-width="1"/>
	<text x="317" y="161.8" fill="#000" font-family="Verdana" font-size="12">Pseudo</text>
	<text x="317" y="178.8" fill="#000" font-family="Verdana" font-size="12">Name</text>
	<text x="317" y="195.8" fill="#000" font-family="Verdana" font-size="12">Firstname</text>
	<text x="317" y="212.8" fill="#000" font-family="Verdana" font-size="12">Birthdate</text>
	<text x="317" y="229.8" fill="#000" font-family="Verdana" font-size="12">Adress</text>
	<text x="317" y="246.8" fill="#000" font-family="Verdana" font-size="12">Image</text>
	<text x="317" y="263.8" fill="#000" font-family="Verdana" font-size="12">Bio</text>
	<text x="317" y="280.8" fill="#000" font-family="Verdana" font-size="12">Email</text>
	<text x="317" y="297.8" fill="#000" font-family="Verdana" font-size="12">Phone</text>
	<text x="317" y="314.8" fill="#000" font-family="Verdana" font-size="12">Region</text>
	<text x="317" y="331.8" fill="#000" font-family="Verdana" font-size="12">created at</text>
</g>

<!-- Entity Type -->
<g class="page_0_80t35gcd diagram_page" visibility="visible">
	<g>
		<rect x="9" y="356" width="72" height="25" fill="#b2abd2" stroke="#b2abd2" stroke-width="0" opacity="1"/>
		<rect x="9" y="381" width="72" height="43" fill="#d8daeb" stroke="#d8daeb" stroke-width="0" opacity="1"/>
		<rect x="9" y="356" width="72" height="68" fill="none" stroke="#8073ac" stroke-width="2" opacity="1"/>
		<line x1="9" y1="381" x2="81" y2="381" stroke="#8073ac" stroke-width="1"/>
	</g>
	<text x="30" y="373.75" fill="#000" font-family="Verdana" font-size="12">Type</text>
	<text x="14" y="398.8" fill="#000" font-family="Verdana" font-size="12">CodeType</text>
	<line x1="14" y1="401" x2="75" y2="401" stroke="#000" stroke-width="1"/>
	<text x="14" y="415.8" fill="#000" font-family="Verdana" font-size="12">Name</text>
</g>

<!-- Entity Event -->
<g class="page_0_80t35gcd diagram_page" visibility="visible">
	<g>
		<rect x="181" y="271" width="76" height="25" fill="#b2abd2" stroke="#b2abd2" stroke-width="0" opacity="1"/>
		<rect x="181" y="296" width="76" height="213" fill="#d8daeb" stroke="#d8daeb" stroke-width="0" opacity="1"/>
		<rect x="181" y="271" width="76" height="238" fill="none" stroke="#8073ac" stroke-width="2" opacity="1"/>
		<line x1="181" y1="296" x2="257" y2="296" stroke="#8073ac" stroke-width="1"/>
	</g>
	<text x="202" y="288.75" fill="#000" font-family="Verdana" font-size="12">Event</text>
	<text x="186" y="313.8" fill="#000" font-family="Verdana" font-size="12">CodeEvent</text>
	<line x1="186" y1="316" x2="252" y2="316" stroke="#000" stroke-width="1"/>
	<text x="186" y="330.8" fill="#000" font-family="Verdana" font-size="12">Title</text>
	<text x="186" y="347.8" fill="#000" font-family="Verdana" font-size="12">Duration</text>
	<text x="186" y="364.8" fill="#000" font-family="Verdana" font-size="12">Address</text>
	<text x="186" y="381.8" fill="#000" font-family="Verdana" font-size="12">Region</text>
	<text x="186" y="398.8" fill="#000" font-family="Verdana" font-size="12">Price</text>
	<text x="186" y="415.8" fill="#000" font-family="Verdana" font-size="12">Summary</text>
	<text x="186" y="432.8" fill="#000" font-family="Verdana" font-size="12">Poster</text>
	<text x="186" y="449.8" fill="#000" font-family="Verdana" font-size="12">Date</text>
	<text x="186" y="466.8" fill="#000" font-family="Verdana" font-size="12">Info</text>
	<text x="186" y="483.8" fill="#000" font-family="Verdana" font-size="12">Frequency</text>
	<text x="186" y="500.8" fill="#000" font-family="Verdana" font-size="12">created at</text>
</g>

<!-- Entity User -->
<g class="page_0_80t35gcd diagram_page" visibility="visible">
	<g>
		<rect x="419" y="339" width="70" height="25" fill="#b2abd2" stroke="#b2abd2" stroke-width="0" opacity="1"/>
		<rect x="419" y="364" width="70" height="77" fill="#d8daeb" stroke="#d8daeb" stroke-width="0" opacity="1"/>
		<rect x="419" y="339" width="70" height="102" fill="none" stroke="#8073ac" stroke-width="2" opacity="1"/>
		<line x1="419" y1="364" x2="489" y2="364" stroke="#8073ac" stroke-width="1"/>
	</g>
	<text x="440" y="356.75" fill="#000" font-family="Verdana" font-size="12">User</text>
	<text x="424" y="381.8" fill="#000" font-family="Verdana" font-size="12">CodeUser</text>
	<line x1="424" y1="384" x2="483" y2="384" stroke="#000" stroke-width="1"/>
	<text x="424" y="398.8" fill="#000" font-family="Verdana" font-size="12">Email</text>
	<text x="424" y="415.8" fill="#000" font-family="Verdana" font-size="12">Password</text>
	<text x="424" y="432.8" fill="#000" font-family="Verdana" font-size="12">Role</text>
</g>

<!-- Entity Stockage -->
<g class="page_0_80t35gcd diagram_page" visibility="visible">
	<g>
		<rect x="589" y="339" width="98" height="25" fill="#b2abd2" stroke="#b2abd2" stroke-width="0" opacity="1"/>
		<rect x="589" y="364" width="98" height="77" fill="#d8daeb" stroke="#d8daeb" stroke-width="0" opacity="1"/>
		<rect x="589" y="339" width="98" height="102" fill="none" stroke="#8073ac" stroke-width="2" opacity="1"/>
		<line x1="589" y1="364" x2="687" y2="364" stroke="#8073ac" stroke-width="1"/>
	</g>
	<text x="610" y="356.75" fill="#000" font-family="Verdana" font-size="12">Stockage</text>
	<text x="594" y="381.8" fill="#000" font-family="Verdana" font-size="12">CodeStockage</text>
	<line x1="594" y1="384" x2="681" y2="384" stroke="#000" stroke-width="1"/>
	<text x="594" y="398.8" fill="#000" font-family="Verdana" font-size="12">Image</text>
	<text x="594" y="415.8" fill="#000" font-family="Verdana" font-size="12">Video</text>
	<text x="594" y="432.8" fill="#000" font-family="Verdana" font-size="12">Document</text>
</g>

<!-- Entity Organizer -->
<g class="page_0_80t35gcd diagram_page" visibility="visible">
	<g>
		<rect x="289" y="466" width="120" height="25" fill="#b2abd2" stroke="#b2abd2" stroke-width="0" opacity="1"/>
		<rect x="289" y="491" width="120" height="161" fill="#d8daeb" stroke="#d8daeb" stroke-width="0" opacity="1"/>
		<rect x="289" y="466" width="120" height="186" fill="none" stroke="#8073ac" stroke-width="2" opacity="1"/>
		<line x1="289" y1="491" x2="409" y2="491" stroke="#8073ac" stroke-width="1"/>
	</g>
	<text x="319" y="483.75" fill="#000" font-family="Verdana" font-size="12">Organizer</text>
	<text x="294" y="508.8" fill="#000" font-family="Verdana" font-size="12">CodeEventsPlaner</text>
	<line x1="294" y1="511" x2="403" y2="511" stroke="#000" stroke-width="1"/>
	<text x="294" y="525.8" fill="#000" font-family="Verdana" font-size="12">Name</text>
	<text x="294" y="542.8" fill="#000" font-family="Verdana" font-size="12">Address</text>
	<text x="294" y="559.8" fill="#000" font-family="Verdana" font-size="12">Type</text>
	<text x="294" y="576.8" fill="#000" font-family="Verdana" font-size="12">Description</text>
	<text x="294" y="593.8" fill="#000" font-family="Verdana" font-size="12">Region</text>
	<text x="294" y="610.8" fill="#000" font-family="Verdana" font-size="12">Logo</text>
	<text x="294" y="627.8" fill="#000" font-family="Verdana" font-size="12">Email</text>
	<text x="294" y="644.8" fill="#000" font-family="Verdana" font-size="12">created at</text>
</g>
</svg>