<?xml version="1.0" encoding="utf-8"?>
<svg width="696" height="652" viewBox="0 0 696 652" xmlns="http://www.w3.org/2000/svg">
<rect id="frame" x="0" y="0" width="696" height="652" fill="#f7f7f7" stroke="none" stroke-width="0"/>

<!-- Association has1 -->
<g class="page_0_6NuHBW6v diagram_page" visibility="visible">
	<line x1="349" y1="212" x2="349" y2="43" stroke="#e08214" stroke-width="2"/>
	<text x="354" y="94" fill="#542788" font-family="Verdana" font-size="12">1,N</text>
	<line x1="454" y1="43" x2="349" y2="43" stroke="#e08214" stroke-width="2"/>
	<text x="379" y="60" fill="#542788" font-family="Verdana" font-size="12">0,N</text>
	<g>
		<path d="M353 18 a14 14 90 0 1 14 14 V43 h-36 V32 a14 14 90 0 1 14 -14" fill="#fdb863" stroke="#fdb863" stroke-width="0"/>
		<path d="M367 43 v11 a14 14 90 0 1 -14 14 H345 a14 14 90 0 1 -14 -14 V43 H36" fill="#fee0b6" stroke="#fee0b6" stroke-width="0"/>
		<rect x="331" y="18" width="36" height="50" fill="none" rx="14" stroke="#e08214" stroke-width="2"/>
		<line x1="331" y1="43" x2="367" y2="43" stroke="#e08214" stroke-width="1"/>
		<text x="338" y="35.75" fill="#000" font-family="Verdana" font-size="12">has</text>
	</g>
</g>

<!-- Association has2 -->
<g class="page_0_6NuHBW6v diagram_page" visibility="visible">
	<line x1="219" y1="381" x2="219" y2="212" stroke="#e08214" stroke-width="2"/>
	<text x="224" y="254" fill="#542788" font-family="Verdana" font-size="12">1,N</text>
	<line x1="349" y1="212" x2="219" y2="212" stroke="#e08214" stroke-width="2"/>
	<text x="285" y="229" fill="#542788" font-family="Verdana" font-size="12">0,N</text>
	<g>
		<path d="M223 187 a14 14 90 0 1 14 14 V212 h-36 V201 a14 14 90 0 1 14 -14" fill="#fdb863" stroke="#fdb863" stroke-width="0"/>
		<path d="M237 212 v11 a14 14 90 0 1 -14 14 H215 a14 14 90 0 1 -14 -14 V212 H36" fill="#fee0b6" stroke="#fee0b6" stroke-width="0"/>
		<rect x="201" y="187" width="36" height="50" fill="none" rx="14" stroke="#e08214" stroke-width="2"/>
		<line x1="201" y1="212" x2="237" y2="212" stroke="#e08214" stroke-width="1"/>
		<text x="208" y="204.75" fill="#000" font-family="Verdana" font-size="12">has</text>
	</g>
</g>

<!-- Association is1 -->
<g class="page_0_6NuHBW6v diagram_page" visibility="visible">
	<line x1="349" y1="212" x2="454" y2="212" stroke="#e08214" stroke-width="2"/>
	<text x="391" y="229" fill="#542788" font-family="Verdana" font-size="12">1,1</text>
	<line x1="454" y1="381" x2="454" y2="212" stroke="#e08214" stroke-width="2"/>
	<text x="459" y="322" fill="#542788" font-family="Verdana" font-size="12">0,1</text>
	<g>
		<path d="M453 187 a14 14 90 0 1 14 14 V212 h-26 V201 a14 14 90 0 1 14 -14" fill="#fdb863" stroke="#fdb863" stroke-width="0"/>
		<path d="M467 212 v11 a14 14 90 0 1 -14 14 H455 a14 14 90 0 1 -14 -14 V212 H26" fill="#fee0b6" stroke="#fee0b6" stroke-width="0"/>
		<rect x="441" y="187" width="26" height="50" fill="none" rx="14" stroke="#e08214" stroke-width="2"/>
		<line x1="441" y1="212" x2="467" y2="212" stroke="#e08214" stroke-width="1"/>
		<text x="449" y="204.75" fill="#000" font-family="Verdana" font-size="12">is</text>
	</g>
</g>

<!-- Association has4 -->
<g class="page_0_6NuHBW6v diagram_page" visibility="visible">
	<line x1="219" y1="381" x2="131" y2="381" stroke="#e08214" stroke-width="2"/>
	<text x="155" y="398" fill="#542788" font-family="Verdana" font-size="12">1,1</text>
	<line x1="45" y1="381" x2="131" y2="381" stroke="#e08214" stroke-width="2"/>
	<text x="86" y="398" fill="#542788" font-family="Verdana" font-size="12">0,N</text>
	<g>
		<path d="M135 356 a14 14 90 0 1 14 14 V381 h-36 V370 a14 14 90 0 1 14 -14" fill="#fdb863" stroke="#fdb863" stroke-width="0"/>
		<path d="M149 381 v11 a14 14 90 0 1 -14 14 H127 a14 14 90 0 1 -14 -14 V381 H36" fill="#fee0b6" stroke="#fee0b6" stroke-width="0"/>
		<rect x="113" y="356" width="36" height="50" fill="none" rx="14" stroke="#e08214" stroke-width="2"/>
		<line x1="113" y1="381" x2="149" y2="381" stroke="#e08214" stroke-width="1"/>
		<text x="120" y="373.75" fill="#000" font-family="Verdana" font-size="12">has</text>
	</g>
</g>

<!-- Association add_by -->
<g class="page_0_6NuHBW6v diagram_page" visibility="visible">
	<line x1="349" y1="550" x2="349" y2="381" stroke="#e08214" stroke-width="2"/>
	<text x="354" y="449" fill="#542788" font-family="Verdana" font-size="12">0,N</text>
	<line x1="349" y1="212" x2="349" y2="381" stroke="#e08214" stroke-width="2"/>
	<text x="354" y="339" fill="#542788" font-family="Verdana" font-size="12">0,N</text>
	<g>
		<path d="M365 356 a14 14 90 0 1 14 14 V381 h-60 V370 a14 14 90 0 1 14 -14" fill="#fdb863" stroke="#fdb863" stroke-width="0"/>
		<path d="M379 381 v11 a14 14 90 0 1 -14 14 H333 a14 14 90 0 1 -14 -14 V381 H60" fill="#fee0b6" stroke="#fee0b6" stroke-width="0"/>
		<rect x="319" y="356" width="60" height="50" fill="none" rx="14" stroke="#e08214" stroke-width="2"/>
		<line x1="319" y1="381" x2="379" y2="381" stroke="#e08214" stroke-width="1"/>
		<text x="327" y="373.75" fill="#000" font-family="Verdana" font-size="12">add_by</text>
	</g>
</g>

<!-- Association has3 -->
<g class="page_0_6NuHBW6v diagram_page" visibility="visible">
	<line x1="454" y1="381" x2="539" y2="381" stroke="#e08214" stroke-width="2"/>
	<text x="494" y="398" fill="#542788" font-family="Verdana" font-size="12">0,N</text>
	<line x1="638" y1="381" x2="539" y2="381" stroke="#e08214" stroke-width="2"/>
	<text x="563" y="398" fill="#542788" font-family="Verdana" font-size="12">1,1</text>
	<g>
		<path d="M543 356 a14 14 90 0 1 14 14 V381 h-36 V370 a14 14 90 0 1 14 -14" fill="#fdb863" stroke="#fdb863" stroke-width="0"/>
		<path d="M557 381 v11 a14 14 90 0 1 -14 14 H535 a14 14 90 0 1 -14 -14 V381 H36" fill="#fee0b6" stroke="#fee0b6" stroke-width="0"/>
		<rect x="521" y="356" width="36" height="50" fill="none" rx="14" stroke="#e08214" stroke-width="2"/>
		<line x1="521" y1="381" x2="557" y2="381" stroke="#e08214" stroke-width="1"/>
		<text x="528" y="373.75" fill="#000" font-family="Verdana" font-size="12">has</text>
	</g>
</g>

<!-- Association create_by -->
<g class="page_0_6NuHBW6v diagram_page" visibility="visible">
	<line x1="219" y1="381" x2="219" y2="550" stroke="#e08214" stroke-width="2"/>
	<text x="224" y="517" fill="#542788" font-family="Verdana" font-size="12">1,N</text>
	<line x1="349" y1="550" x2="219" y2="550" stroke="#e08214" stroke-width="2"/>
	<text x="262" y="567" fill="#542788" font-family="Verdana" font-size="12">0,N</text>
	<g>
		<path d="M243 525 a14 14 90 0 1 14 14 V550 h-76 V539 a14 14 90 0 1 14 -14" fill="#fdb863" stroke="#fdb863" stroke-width="0"/>
		<path d="M257 550 v11 a14 14 90 0 1 -14 14 H195 a14 14 90 0 1 -14 -14 V550 H76" fill="#fee0b6" stroke="#fee0b6" stroke-width="0"/>
		<rect x="181" y="525" width="76" height="50" fill="none" rx="14" stroke="#e08214" stroke-width="2"/>
		<line x1="181" y1="550" x2="257" y2="550" stroke="#e08214" stroke-width="1"/>
		<text x="189" y="542.75" fill="#000" font-family="Verdana" font-size="12">create_by</text>
	</g>
</g>

<!-- Association is2 -->
<g class="page_0_6NuHBW6v diagram_page" visibility="visible">
	<line x1="349" y1="550" x2="454" y2="550" stroke="#e08214" stroke-width="2"/>
	<text x="414" y="567" fill="#542788" font-family="Verdana" font-size="12">1,1</text>
	<line x1="454" y1="381" x2="454" y2="550" stroke="#e08214" stroke-width="2"/>
	<text x="459" y="449" fill="#542788" font-family="Verdana" font-size="12">0,1</text>
	<g>
		<path d="M453 525 a14 14 90 0 1 14 14 V550 h-26 V539 a14 14 90 0 1 14 -14" fill="#fdb863" stroke="#fdb863" stroke-width="0"/>
		<path d="M467 550 v11 a14 14 90 0 1 -14 14 H455 a14 14 90 0 1 -14 -14 V550 H26" fill="#fee0b6" stroke="#fee0b6" stroke-width="0"/>
		<rect x="441" y="525" width="26" height="50" fill="none" rx="14" stroke="#e08214" stroke-width="2"/>
		<line x1="441" y1="550" x2="467" y2="550" stroke="#e08214" stroke-width="1"/>
		<text x="449" y="542.75" fill="#000" font-family="Verdana" font-size="12">is</text>
	</g>
</g>

<!-- Entity Category -->
<g class="page_0_6NuHBW6v diagram_page" visibility="visible">
	<g>
		<rect x="406" y="9" width="96" height="25" fill="#b2abd2" stroke="#b2abd2" stroke-width="0" opacity="1"/>
		<rect x="406" y="34" width="96" height="43" fill="#d8daeb" stroke="#d8daeb" stroke-width="0" opacity="1"/>
		<rect x="406" y="9" width="96" height="68" fill="none" stroke="#8073ac" stroke-width="2" opacity="1"/>
		<line x1="406" y1="34" x2="502" y2="34" stroke="#8073ac" stroke-width="1"/>
	</g>
	<text x="426" y="26.75" fill="#000" font-family="Verdana" font-size="12">Category</text>
	<text x="411" y="51.8" fill="#000" font-family="Verdana" font-size="12">CodeCategory</text>
	<line x1="411" y1="54" x2="497" y2="54" stroke="#000" stroke-width="1"/>
	<text x="411" y="68.8" fill="#000" font-family="Verdana" font-size="12">Name</text>
</g>

<!-- Entity Artist -->
<g class="page_0_6NuHBW6v diagram_page" visibility="visible">
	<g>
		<rect x="312" y="102" width="74" height="25" fill="#b2abd2" stroke="#b2abd2" stroke-width="0" opacity="1"/>
		<rect x="312" y="127" width="74" height="195" fill="#d8daeb" stroke="#d8daeb" stroke-width="0" opacity="1"/>
		<rect x="312" y="102" width="74" height="220" fill="none" stroke="#8073ac" stroke-width="2" opacity="1"/>
		<line x1="312" y1="127" x2="386" y2="127" stroke="#8073ac" stroke-width="1"/>
	</g>
	<text x="333" y="119.75" fill="#000" font-family="Verdana" font-size="12">Artist</text>
	<text x="317" y="144.8" fill="#000" font-family="Verdana" font-size="12">CodeArtist</text>
	<line x1="317" y1="147" x2="381" y2="147" stroke="#000" stroke-width="1"/>
	<text x="317" y="161.8" fill="#000" font-family="Verdana" font-size="12">Pseudo</text>
	<text x="317" y="178.8" fill="#000" font-family="Verdana" font-size="12">Name</text>
	<text x="317" y="195.8" fill="#000" font-family="Verdana" font-size="12">Firstname</text>
	<text x="317" y="212.8" fill="#000" font-family="Verdana" font-size="12">Birthdate</text>
	<text x="317" y="229.8" fill="#000" font-family="Verdana" font-size="12">Image</text>
	<text x="317" y="246.8" fill="#000" font-family="Verdana" font-size="12">Bio</text>
	<text x="317" y="263.8" fill="#000" font-family="Verdana" font-size="12">Email</text>
	<text x="317" y="280.8" fill="#000" font-family="Verdana" font-size="12">Phone</text>
	<text x="317" y="297.8" fill="#000" font-family="Verdana" font-size="12">Region</text>
	<text x="317" y="314.8" fill="#000" font-family="Verdana" font-size="12">created at</text>
</g>

<!-- Entity Type -->
<g class="page_0_6NuHBW6v diagram_page" visibility="visible">
	<g>
		<rect x="9" y="347" width="72" height="25" fill="#b2abd2" stroke="#b2abd2" stroke-width="0" opacity="1"/>
		<rect x="9" y="372" width="72" height="43" fill="#d8daeb" stroke="#d8daeb" stroke-width="0" opacity="1"/>
		<rect x="9" y="347" width="72" height="68" fill="none" stroke="#8073ac" stroke-width="2" opacity="1"/>
		<line x1="9" y1="372" x2="81" y2="372" stroke="#8073ac" stroke-width="1"/>
	</g>
	<text x="30" y="364.75" fill="#000" font-family="Verdana" font-size="12">Type</text>
	<text x="14" y="389.8" fill="#000" font-family="Verdana" font-size="12">CodeType</text>
	<line x1="14" y1="392" x2="75" y2="392" stroke="#000" stroke-width="1"/>
	<text x="14" y="406.8" fill="#000" font-family="Verdana" font-size="12">Name</text>
</g>

<!-- Entity Event -->
<g class="page_0_6NuHBW6v diagram_page" visibility="visible">
	<g>
		<rect x="181" y="262" width="76" height="25" fill="#b2abd2" stroke="#b2abd2" stroke-width="0" opacity="1"/>
		<rect x="181" y="287" width="76" height="213" fill="#d8daeb" stroke="#d8daeb" stroke-width="0" opacity="1"/>
		<rect x="181" y="262" width="76" height="238" fill="none" stroke="#8073ac" stroke-width="2" opacity="1"/>
		<line x1="181" y1="287" x2="257" y2="287" stroke="#8073ac" stroke-width="1"/>
	</g>
	<text x="202" y="279.75" fill="#000" font-family="Verdana" font-size="12">Event</text>
	<text x="186" y="304.8" fill="#000" font-family="Verdana" font-size="12">CodeEvent</text>
	<line x1="186" y1="307" x2="252" y2="307" stroke="#000" stroke-width="1"/>
	<text x="186" y="321.8" fill="#000" font-family="Verdana" font-size="12">Title</text>
	<text x="186" y="338.8" fill="#000" font-family="Verdana" font-size="12">Duration</text>
	<text x="186" y="355.8" fill="#000" font-family="Verdana" font-size="12">Address</text>
	<text x="186" y="372.8" fill="#000" font-family="Verdana" font-size="12">Region</text>
	<text x="186" y="389.8" fill="#000" font-family="Verdana" font-size="12">Price</text>
	<text x="186" y="406.8" fill="#000" font-family="Verdana" font-size="12">Summary</text>
	<text x="186" y="423.8" fill="#000" font-family="Verdana" font-size="12">Poster</text>
	<text x="186" y="440.8" fill="#000" font-family="Verdana" font-size="12">Date</text>
	<text x="186" y="457.8" fill="#000" font-family="Verdana" font-size="12">Info</text>
	<text x="186" y="474.8" fill="#000" font-family="Verdana" font-size="12">Frequency</text>
	<text x="186" y="491.8" fill="#000" font-family="Verdana" font-size="12">created at</text>
</g>

<!-- Entity User -->
<g class="page_0_6NuHBW6v diagram_page" visibility="visible">
	<g>
		<rect x="419" y="330" width="70" height="25" fill="#b2abd2" stroke="#b2abd2" stroke-width="0" opacity="1"/>
		<rect x="419" y="355" width="70" height="77" fill="#d8daeb" stroke="#d8daeb" stroke-width="0" opacity="1"/>
		<rect x="419" y="330" width="70" height="102" fill="none" stroke="#8073ac" stroke-width="2" opacity="1"/>
		<line x1="419" y1="355" x2="489" y2="355" stroke="#8073ac" stroke-width="1"/>
	</g>
	<text x="440" y="347.75" fill="#000" font-family="Verdana" font-size="12">User</text>
	<text x="424" y="372.8" fill="#000" font-family="Verdana" font-size="12">CodeUser</text>
	<line x1="424" y1="375" x2="483" y2="375" stroke="#000" stroke-width="1"/>
	<text x="424" y="389.8" fill="#000" font-family="Verdana" font-size="12">Email</text>
	<text x="424" y="406.8" fill="#000" font-family="Verdana" font-size="12">Password</text>
	<text x="424" y="423.8" fill="#000" font-family="Verdana" font-size="12">Role</text>
</g>

<!-- Entity Stockage -->
<g class="page_0_6NuHBW6v diagram_page" visibility="visible">
	<g>
		<rect x="589" y="330" width="98" height="25" fill="#b2abd2" stroke="#b2abd2" stroke-width="0" opacity="1"/>
		<rect x="589" y="355" width="98" height="77" fill="#d8daeb" stroke="#d8daeb" stroke-width="0" opacity="1"/>
		<rect x="589" y="330" width="98" height="102" fill="none" stroke="#8073ac" stroke-width="2" opacity="1"/>
		<line x1="589" y1="355" x2="687" y2="355" stroke="#8073ac" stroke-width="1"/>
	</g>
	<text x="610" y="347.75" fill="#000" font-family="Verdana" font-size="12">Stockage</text>
	<text x="594" y="372.8" fill="#000" font-family="Verdana" font-size="12">CodeStockage</text>
	<line x1="594" y1="375" x2="681" y2="375" stroke="#000" stroke-width="1"/>
	<text x="594" y="389.8" fill="#000" font-family="Verdana" font-size="12">Image</text>
	<text x="594" y="406.8" fill="#000" font-family="Verdana" font-size="12">Video</text>
	<text x="594" y="423.8" fill="#000" font-family="Verdana" font-size="12">Document</text>
</g>

<!-- Entity Organizer -->
<g class="page_0_6NuHBW6v diagram_page" visibility="visible">
	<g>
		<rect x="289" y="457" width="120" height="25" fill="#b2abd2" stroke="#b2abd2" stroke-width="0" opacity="1"/>
		<rect x="289" y="482" width="120" height="161" fill="#d8daeb" stroke="#d8daeb" stroke-width="0" opacity="1"/>
		<rect x="289" y="457" width="120" height="186" fill="none" stroke="#8073ac" stroke-width="2" opacity="1"/>
		<line x1="289" y1="482" x2="409" y2="482" stroke="#8073ac" stroke-width="1"/>
	</g>
	<text x="319" y="474.75" fill="#000" font-family="Verdana" font-size="12">Organizer</text>
	<text x="294" y="499.8" fill="#000" font-family="Verdana" font-size="12">CodeEventsPlaner</text>
	<line x1="294" y1="502" x2="403" y2="502" stroke="#000" stroke-width="1"/>
	<text x="294" y="516.8" fill="#000" font-family="Verdana" font-size="12">Name</text>
	<text x="294" y="533.8" fill="#000" font-family="Verdana" font-size="12">Address</text>
	<text x="294" y="550.8" fill="#000" font-family="Verdana" font-size="12">Type</text>
	<text x="294" y="567.8" fill="#000" font-family="Verdana" font-size="12">Description</text>
	<text x="294" y="584.8" fill="#000" font-family="Verdana" font-size="12">Region</text>
	<text x="294" y="601.8" fill="#000" font-family="Verdana" font-size="12">Logo</text>
	<text x="294" y="618.8" fill="#000" font-family="Verdana" font-size="12">Email</text>
	<text x="294" y="635.8" fill="#000" font-family="Verdana" font-size="12">created at</text>
</g>
</svg>