<?xml version="1.0" encoding="utf-8"?>
<svg width="714" height="771" viewBox="0 0 714 771" xmlns="http://www.w3.org/2000/svg">
<rect id="frame" x="0" y="0" width="714" height="771" fill="#f7f7f7" stroke="none" stroke-width="0"/>

<!-- Association has1 -->
<g class="page_0_vPKpy51d diagram_page" visibility="visible">
	<line x1="367" y1="204" x2="367" y2="43" stroke="#e08214" stroke-width="2"/>
	<text x="372" y="94" fill="#542788" font-family="Verdana" font-size="12">1,N</text>
	<line x1="472" y1="43" x2="367" y2="43" stroke="#e08214" stroke-width="2"/>
	<text x="397" y="60" fill="#542788" font-family="Verdana" font-size="12">0,N</text>
	<g>
		<path d="M371 18 a14 14 90 0 1 14 14 V43 h-36 V32 a14 14 90 0 1 14 -14" fill="#fdb863" stroke="#fdb863" stroke-width="0"/>
		<path d="M385 43 v11 a14 14 90 0 1 -14 14 H363 a14 14 90 0 1 -14 -14 V43 H36" fill="#fee0b6" stroke="#fee0b6" stroke-width="0"/>
		<rect x="349" y="18" width="36" height="50" fill="none" rx="14" stroke="#e08214" stroke-width="2"/>
		<line x1="349" y1="43" x2="385" y2="43" stroke="#e08214" stroke-width="1"/>
		<text x="356" y="35.75" fill="#000" font-family="Verdana" font-size="12">has</text>
	</g>
</g>

<!-- Association has2 -->
<g class="page_0_vPKpy51d diagram_page" visibility="visible">
	<line x1="237" y1="441" x2="237" y2="204" stroke="#e08214" stroke-width="2"/>
	<text x="242" y="323" fill="#542788" font-family="Verdana" font-size="12">1,N</text>
	<line x1="367" y1="204" x2="237" y2="204" stroke="#e08214" stroke-width="2"/>
	<text x="284" y="221" fill="#542788" font-family="Verdana" font-size="12">0,N</text>
	<g>
		<path d="M241 179 a14 14 90 0 1 14 14 V204 h-36 V193 a14 14 90 0 1 14 -14" fill="#fdb863" stroke="#fdb863" stroke-width="0"/>
		<path d="M255 204 v11 a14 14 90 0 1 -14 14 H233 a14 14 90 0 1 -14 -14 V204 H36" fill="#fee0b6" stroke="#fee0b6" stroke-width="0"/>
		<rect x="219" y="179" width="36" height="50" fill="none" rx="14" stroke="#e08214" stroke-width="2"/>
		<line x1="219" y1="204" x2="255" y2="204" stroke="#e08214" stroke-width="1"/>
		<text x="226" y="196.75" fill="#000" font-family="Verdana" font-size="12">has</text>
	</g>
</g>

<!-- Association is1 -->
<g class="page_0_vPKpy51d diagram_page" visibility="visible">
	<line x1="367" y1="204" x2="472" y2="204" stroke="#e08214" stroke-width="2"/>
	<text x="428" y="221" fill="#542788" font-family="Verdana" font-size="12">1,1</text>
	<line x1="472" y1="441" x2="472" y2="204" stroke="#e08214" stroke-width="2"/>
	<text x="477" y="382" fill="#542788" font-family="Verdana" font-size="12">0,1</text>
	<g>
		<path d="M471 179 a14 14 90 0 1 14 14 V204 h-26 V193 a14 14 90 0 1 14 -14" fill="#fdb863" stroke="#fdb863" stroke-width="0"/>
		<path d="M485 204 v11 a14 14 90 0 1 -14 14 H473 a14 14 90 0 1 -14 -14 V204 H26" fill="#fee0b6" stroke="#fee0b6" stroke-width="0"/>
		<rect x="459" y="179" width="26" height="50" fill="none" rx="14" stroke="#e08214" stroke-width="2"/>
		<line x1="459" y1="204" x2="485" y2="204" stroke="#e08214" stroke-width="1"/>
		<text x="467" y="196.75" fill="#000" font-family="Verdana" font-size="12">is</text>
	</g>
</g>

<!-- Association has4 -->
<g class="page_0_vPKpy51d diagram_page" visibility="visible">
	<line x1="237" y1="441" x2="131" y2="441" stroke="#e08214" stroke-width="2"/>
	<text x="155" y="458" fill="#542788" font-family="Verdana" font-size="12">1,1</text>
	<line x1="45" y1="441" x2="131" y2="441" stroke="#e08214" stroke-width="2"/>
	<text x="86" y="458" fill="#542788" font-family="Verdana" font-size="12">0,N</text>
	<g>
		<path d="M135 416 a14 14 90 0 1 14 14 V441 h-36 V430 a14 14 90 0 1 14 -14" fill="#fdb863" stroke="#fdb863" stroke-width="0"/>
		<path d="M149 441 v11 a14 14 90 0 1 -14 14 H127 a14 14 90 0 1 -14 -14 V441 H36" fill="#fee0b6" stroke="#fee0b6" stroke-width="0"/>
		<rect x="113" y="416" width="36" height="50" fill="none" rx="14" stroke="#e08214" stroke-width="2"/>
		<line x1="113" y1="441" x2="149" y2="441" stroke="#e08214" stroke-width="1"/>
		<text x="120" y="433.75" fill="#000" font-family="Verdana" font-size="12">has</text>
	</g>
</g>

<!-- Association add_by -->
<g class="page_0_vPKpy51d diagram_page" visibility="visible">
	<line x1="367" y1="669" x2="367" y2="441" stroke="#e08214" stroke-width="2"/>
	<text x="372" y="568" fill="#542788" font-family="Verdana" font-size="12">0,N</text>
	<line x1="367" y1="204" x2="367" y2="441" stroke="#e08214" stroke-width="2"/>
	<text x="372" y="323" fill="#542788" font-family="Verdana" font-size="12">0,N</text>
	<g>
		<path d="M383 416 a14 14 90 0 1 14 14 V441 h-60 V430 a14 14 90 0 1 14 -14" fill="#fdb863" stroke="#fdb863" stroke-width="0"/>
		<path d="M397 441 v11 a14 14 90 0 1 -14 14 H351 a14 14 90 0 1 -14 -14 V441 H60" fill="#fee0b6" stroke="#fee0b6" stroke-width="0"/>
		<rect x="337" y="416" width="60" height="50" fill="none" rx="14" stroke="#e08214" stroke-width="2"/>
		<line x1="337" y1="441" x2="397" y2="441" stroke="#e08214" stroke-width="1"/>
		<text x="345" y="433.75" fill="#000" font-family="Verdana" font-size="12">add_by</text>
	</g>
</g>

<!-- Association has3 -->
<g class="page_0_vPKpy51d diagram_page" visibility="visible">
	<line x1="472" y1="441" x2="557" y2="441" stroke="#e08214" stroke-width="2"/>
	<text x="512" y="458" fill="#542788" font-family="Verdana" font-size="12">0,N</text>
	<line x1="656" y1="441" x2="557" y2="441" stroke="#e08214" stroke-width="2"/>
	<text x="581" y="458" fill="#542788" font-family="Verdana" font-size="12">1,1</text>
	<g>
		<path d="M561 416 a14 14 90 0 1 14 14 V441 h-36 V430 a14 14 90 0 1 14 -14" fill="#fdb863" stroke="#fdb863" stroke-width="0"/>
		<path d="M575 441 v11 a14 14 90 0 1 -14 14 H553 a14 14 90 0 1 -14 -14 V441 H36" fill="#fee0b6" stroke="#fee0b6" stroke-width="0"/>
		<rect x="539" y="416" width="36" height="50" fill="none" rx="14" stroke="#e08214" stroke-width="2"/>
		<line x1="539" y1="441" x2="575" y2="441" stroke="#e08214" stroke-width="1"/>
		<text x="546" y="433.75" fill="#000" font-family="Verdana" font-size="12">has</text>
	</g>
</g>

<!-- Association create_by -->
<g class="page_0_vPKpy51d diagram_page" visibility="visible">
	<line x1="237" y1="441" x2="237" y2="669" stroke="#e08214" stroke-width="2"/>
	<text x="242" y="568" fill="#542788" font-family="Verdana" font-size="12">1,N</text>
	<line x1="367" y1="669" x2="237" y2="669" stroke="#e08214" stroke-width="2"/>
	<text x="280" y="686" fill="#542788" font-family="Verdana" font-size="12">0,N</text>
	<g>
		<path d="M261 644 a14 14 90 0 1 14 14 V669 h-76 V658 a14 14 90 0 1 14 -14" fill="#fdb863" stroke="#fdb863" stroke-width="0"/>
		<path d="M275 669 v11 a14 14 90 0 1 -14 14 H213 a14 14 90 0 1 -14 -14 V669 H76" fill="#fee0b6" stroke="#fee0b6" stroke-width="0"/>
		<rect x="199" y="644" width="76" height="50" fill="none" rx="14" stroke="#e08214" stroke-width="2"/>
		<line x1="199" y1="669" x2="275" y2="669" stroke="#e08214" stroke-width="1"/>
		<text x="207" y="661.75" fill="#000" font-family="Verdana" font-size="12">create_by</text>
	</g>
</g>

<!-- Association is2 -->
<g class="page_0_vPKpy51d diagram_page" visibility="visible">
	<line x1="367" y1="669" x2="472" y2="669" stroke="#e08214" stroke-width="2"/>
	<text x="432" y="686" fill="#542788" font-family="Verdana" font-size="12">1,1</text>
	<line x1="472" y1="441" x2="472" y2="669" stroke="#e08214" stroke-width="2"/>
	<text x="477" y="509" fill="#542788" font-family="Verdana" font-size="12">0,1</text>
	<g>
		<path d="M471 644 a14 14 90 0 1 14 14 V669 h-26 V658 a14 14 90 0 1 14 -14" fill="#fdb863" stroke="#fdb863" stroke-width="0"/>
		<path d="M485 669 v11 a14 14 90 0 1 -14 14 H473 a14 14 90 0 1 -14 -14 V669 H26" fill="#fee0b6" stroke="#fee0b6" stroke-width="0"/>
		<rect x="459" y="644" width="26" height="50" fill="none" rx="14" stroke="#e08214" stroke-width="2"/>
		<line x1="459" y1="669" x2="485" y2="669" stroke="#e08214" stroke-width="1"/>
		<text x="467" y="661.75" fill="#000" font-family="Verdana" font-size="12">is</text>
	</g>
</g>

<!-- Entity Category -->
<g class="page_0_vPKpy51d diagram_page" visibility="visible">
	<g>
		<rect x="424" y="9" width="96" height="25" fill="#b2abd2" stroke="#b2abd2" stroke-width="0" opacity="1"/>
		<rect x="424" y="34" width="96" height="43" fill="#d8daeb" stroke="#d8daeb" stroke-width="0" opacity="1"/>
		<rect x="424" y="9" width="96" height="68" fill="none" stroke="#8073ac" stroke-width="2" opacity="1"/>
		<line x1="424" y1="34" x2="520" y2="34" stroke="#8073ac" stroke-width="1"/>
	</g>
	<text x="444" y="26.75" fill="#000" font-family="Verdana" font-size="12">Category</text>
	<text x="429" y="51.8" fill="#000" font-family="Verdana" font-size="12">CodeCategory</text>
	<line x1="429" y1="54" x2="515" y2="54" stroke="#000" stroke-width="1"/>
	<text x="429" y="68.8" fill="#000" font-family="Verdana" font-size="12">Name</text>
</g>

<!-- Entity Artist -->
<g class="page_0_vPKpy51d diagram_page" visibility="visible">
	<g>
		<rect x="311" y="102" width="112" height="25" fill="#b2abd2" stroke="#b2abd2" stroke-width="0" opacity="1"/>
		<rect x="311" y="127" width="112" height="179" fill="#d8daeb" stroke="#d8daeb" stroke-width="0" opacity="1"/>
		<rect x="311" y="102" width="112" height="204" fill="none" stroke="#8073ac" stroke-width="2" opacity="1"/>
		<line x1="311" y1="127" x2="423" y2="127" stroke="#8073ac" stroke-width="1"/>
	</g>
	<text x="351" y="119.75" fill="#000" font-family="Verdana" font-size="12">Artist</text>
	<text x="316" y="144.8" fill="#000" font-family="Verdana" font-size="12">CodeArtist</text>
	<line x1="316" y1="147" x2="380" y2="147" stroke="#000" stroke-width="1"/>
	<text x="316" y="161.8" fill="#000" font-family="Verdana" font-size="12">Pseudo</text>
	<text x="316" y="178.8" fill="#000" font-family="Verdana" font-size="12">Name</text>
	<text x="316" y="195.8" fill="#000" font-family="Verdana" font-size="12">Firstname</text>
	<text x="316" y="212.8" fill="#000" font-family="Verdana" font-size="12">Birthdate</text>
	<text x="316" y="229.8" fill="#000" font-family="Verdana" font-size="12">Image</text>
	<text x="316" y="246.8" fill="#000" font-family="Verdana" font-size="12">Bio</text>
	<text x="316" y="263.8" fill="#000" font-family="Verdana" font-size="12">Email</text>
	<text x="316" y="280.8" fill="#000" font-family="Verdana" font-size="12">Phone</text>
	<text x="316" y="297.8" fill="#000" font-family="Verdana" font-size="12">Date de création</text>
</g>

<!-- Entity Type -->
<g class="page_0_vPKpy51d diagram_page" visibility="visible">
	<g>
		<rect x="9" y="407" width="72" height="25" fill="#b2abd2" stroke="#b2abd2" stroke-width="0" opacity="1"/>
		<rect x="9" y="432" width="72" height="43" fill="#d8daeb" stroke="#d8daeb" stroke-width="0" opacity="1"/>
		<rect x="9" y="407" width="72" height="68" fill="none" stroke="#8073ac" stroke-width="2" opacity="1"/>
		<line x1="9" y1="432" x2="81" y2="432" stroke="#8073ac" stroke-width="1"/>
	</g>
	<text x="30" y="424.75" fill="#000" font-family="Verdana" font-size="12">Type</text>
	<text x="14" y="449.8" fill="#000" font-family="Verdana" font-size="12">CodeType</text>
	<line x1="14" y1="452" x2="75" y2="452" stroke="#000" stroke-width="1"/>
	<text x="14" y="466.8" fill="#000" font-family="Verdana" font-size="12">Name</text>
</g>

<!-- Entity Event -->
<g class="page_0_vPKpy51d diagram_page" visibility="visible">
	<g>
		<rect x="181" y="331" width="112" height="25" fill="#b2abd2" stroke="#b2abd2" stroke-width="0" opacity="1"/>
		<rect x="181" y="356" width="112" height="195" fill="#d8daeb" stroke="#d8daeb" stroke-width="0" opacity="1"/>
		<rect x="181" y="331" width="112" height="220" fill="none" stroke="#8073ac" stroke-width="2" opacity="1"/>
		<line x1="181" y1="356" x2="293" y2="356" stroke="#8073ac" stroke-width="1"/>
	</g>
	<text x="220" y="348.75" fill="#000" font-family="Verdana" font-size="12">Event</text>
	<text x="186" y="373.8" fill="#000" font-family="Verdana" font-size="12">CodeEvent</text>
	<line x1="186" y1="376" x2="252" y2="376" stroke="#000" stroke-width="1"/>
	<text x="186" y="390.8" fill="#000" font-family="Verdana" font-size="12">Title</text>
	<text x="186" y="407.8" fill="#000" font-family="Verdana" font-size="12">Duration</text>
	<text x="186" y="424.8" fill="#000" font-family="Verdana" font-size="12">Address</text>
	<text x="186" y="441.8" fill="#000" font-family="Verdana" font-size="12">Price</text>
	<text x="186" y="458.8" fill="#000" font-family="Verdana" font-size="12">Summary</text>
	<text x="186" y="475.8" fill="#000" font-family="Verdana" font-size="12">Poster</text>
	<text x="186" y="492.8" fill="#000" font-family="Verdana" font-size="12">Date</text>
	<text x="186" y="509.8" fill="#000" font-family="Verdana" font-size="12">Info</text>
	<text x="186" y="526.8" fill="#000" font-family="Verdana" font-size="12">Frequency</text>
	<text x="186" y="543.8" fill="#000" font-family="Verdana" font-size="12">Date de création</text>
</g>

<!-- Entity User -->
<g class="page_0_vPKpy51d diagram_page" visibility="visible">
	<g>
		<rect x="437" y="390" width="70" height="25" fill="#b2abd2" stroke="#b2abd2" stroke-width="0" opacity="1"/>
		<rect x="437" y="415" width="70" height="77" fill="#d8daeb" stroke="#d8daeb" stroke-width="0" opacity="1"/>
		<rect x="437" y="390" width="70" height="102" fill="none" stroke="#8073ac" stroke-width="2" opacity="1"/>
		<line x1="437" y1="415" x2="507" y2="415" stroke="#8073ac" stroke-width="1"/>
	</g>
	<text x="458" y="407.75" fill="#000" font-family="Verdana" font-size="12">User</text>
	<text x="442" y="432.8" fill="#000" font-family="Verdana" font-size="12">CodeUser</text>
	<line x1="442" y1="435" x2="501" y2="435" stroke="#000" stroke-width="1"/>
	<text x="442" y="449.8" fill="#000" font-family="Verdana" font-size="12">Email</text>
	<text x="442" y="466.8" fill="#000" font-family="Verdana" font-size="12">Password</text>
	<text x="442" y="483.8" fill="#000" font-family="Verdana" font-size="12">Role</text>
</g>

<!-- Entity Stockage -->
<g class="page_0_vPKpy51d diagram_page" visibility="visible">
	<g>
		<rect x="607" y="390" width="98" height="25" fill="#b2abd2" stroke="#b2abd2" stroke-width="0" opacity="1"/>
		<rect x="607" y="415" width="98" height="77" fill="#d8daeb" stroke="#d8daeb" stroke-width="0" opacity="1"/>
		<rect x="607" y="390" width="98" height="102" fill="none" stroke="#8073ac" stroke-width="2" opacity="1"/>
		<line x1="607" y1="415" x2="705" y2="415" stroke="#8073ac" stroke-width="1"/>
	</g>
	<text x="628" y="407.75" fill="#000" font-family="Verdana" font-size="12">Stockage</text>
	<text x="612" y="432.8" fill="#000" font-family="Verdana" font-size="12">CodeStockage</text>
	<line x1="612" y1="435" x2="699" y2="435" stroke="#000" stroke-width="1"/>
	<text x="612" y="449.8" fill="#000" font-family="Verdana" font-size="12">Image</text>
	<text x="612" y="466.8" fill="#000" font-family="Verdana" font-size="12">Video</text>
	<text x="612" y="483.8" fill="#000" font-family="Verdana" font-size="12">Document</text>
</g>

<!-- Entity Organizer -->
<g class="page_0_vPKpy51d diagram_page" visibility="visible">
	<g>
		<rect x="307" y="576" width="120" height="25" fill="#b2abd2" stroke="#b2abd2" stroke-width="0" opacity="1"/>
		<rect x="307" y="601" width="120" height="161" fill="#d8daeb" stroke="#d8daeb" stroke-width="0" opacity="1"/>
		<rect x="307" y="576" width="120" height="186" fill="none" stroke="#8073ac" stroke-width="2" opacity="1"/>
		<line x1="307" y1="601" x2="427" y2="601" stroke="#8073ac" stroke-width="1"/>
	</g>
	<text x="337" y="593.75" fill="#000" font-family="Verdana" font-size="12">Organizer</text>
	<text x="312" y="618.8" fill="#000" font-family="Verdana" font-size="12">CodeEventsPlaner</text>
	<line x1="312" y1="621" x2="421" y2="621" stroke="#000" stroke-width="1"/>
	<text x="312" y="635.8" fill="#000" font-family="Verdana" font-size="12">Name</text>
	<text x="312" y="652.8" fill="#000" font-family="Verdana" font-size="12">Address</text>
	<text x="312" y="669.8" fill="#000" font-family="Verdana" font-size="12">Type</text>
	<text x="312" y="686.8" fill="#000" font-family="Verdana" font-size="12">Description</text>
	<text x="312" y="703.8" fill="#000" font-family="Verdana" font-size="12">Region</text>
	<text x="312" y="720.8" fill="#000" font-family="Verdana" font-size="12">Logo</text>
	<text x="312" y="737.8" fill="#000" font-family="Verdana" font-size="12">Email</text>
	<text x="312" y="754.8" fill="#000" font-family="Verdana" font-size="12">Date de création</text>
</g>
</svg>